# xmcd CD database file
#
# Track frame offsets:
#	150
#	17380
#	40302
#	77608
#	98988
#	108360
#	128250
#	147777
#	156543
#	181314
#	213424
#	234456
#	262344
#	296943
#	330210
#
# Disc length: 4503 seconds
#
# Revision: 0
# Processed by: cddbd v1.5.1PL0 Copyright (c) Steve Scherf et al.
# Submitted via: CDex 1.51
#
DISCID=cd11950f
DTITLE=Uchihashi Kazuhisa - Yoshida Tatsuya - Hercules' Icy Club
DYEAR=2004
DGENRE=Jazz
TTITLE0=Are You Blee?
TTITLE1=Basashi Sand
TTITLE2=An Affair with Naresushi
TTITLE3=Jozen, Mizunogotoshi
TTITLE4=Notto Chocolate
TTITLE5=G.M.K. - Genetic Modified Koyadofu
TTITLE6=Kashoku no Yuwaku
TTITLE7=Permanent Kintaroame
TTITLE8=Smalec on Fire
TTITLE9=Zacro no Hana
TTITLE10=Memories of Manganjitougarashi
TTITLE11=T.G.T.P. - The Great Talacco Pasta
TTITLE12=U.G.M.N. - Ultra Great Miso Natto
TTITLE13=Vegetarian's Katsu Curry
TTITLE14=Munpuk, Munpuk
EXTD=YEAR: 2004
EXTT0=
EXTT1=
EXTT2=
EXTT3=
EXTT4=
EXTT5=
EXTT6=
EXTT7=
EXTT8=
EXTT9=
EXTT10=
EXTT11=
EXTT12=
EXTT13=
EXTT14=
PLAYORDER=
